<svg xmlns="http://www.w3.org/2000/svg" width="64" height="64" fill="#9932cc" viewBox="0 0 256 256"><animate attributeName="opacity" dur="4s" repeatCount="indefinite" values="0;1;0"/><animateTransform attributeName="transform" attributeType="XML" dur="5s" from="0 0 0" repeatCount="indefinite" to="360 0 0" type="rotate"/><g><g opacity=".2"><path d="M37.10205,76.61578A7.99474,7.99474,0,0,0,36,80.66772v94.66456a8,8,0,0,0,4.06354,6.96451l84,47.47826A7.99524,7.99524,0,0,0,128,230.81054v-.00018L129.06171,128l-91.959-51.38385Z"/></g><line x1="129.062" x2="128" y1="128" y2="230.81" fill="none" stroke="#9932cc" stroke-linecap="round" stroke-linejoin="round" stroke-width="16"/><path fill="none" stroke="#9932cc" stroke-linecap="round" stroke-linejoin="round" stroke-width="16" d="M220,175.33228V80.66772a8,8,0,0,0-4.06354-6.9645l-84-47.47826a8,8,0,0,0-7.87292,0l-84,47.47826A8,8,0,0,0,36,80.66772v94.66456a8,8,0,0,0,4.06354,6.96451l84,47.47826a8,8,0,0,0,7.87292,0l84-47.47826A8,8,0,0,0,220,175.33228Z"/><polyline fill="none" stroke="#9932cc" stroke-linecap="round" stroke-linejoin="round" stroke-width="16" points="218.904 76.627 129.062 128 37.103 76.616"/></g></svg>